<svg xmlns="http://www.w3.org/2000/svg" viewBox="0 0 292.4 88.4"><path d="M280.4 76.5H12c-6.6 0-12-5.4-12-12V12C0 5.4 5.4 0 12 0h268.4c6.6 0 12 5.4 12 12v52.5c0 6.6-5.4 12-12 12z" fill="#253471"/><path d="M13.4 0h56.8v83.6c0 3.6-3.8 5.9-7 4.3L41.8 76.7 20.5 87.8c-3.2 1.7-7-.7-7-4.3V0z" fill="#dc3236"/><path d="M70.3 0v83.6c0 3.6-3.8 5.9-7 4.3L41.8 76.7V0h28.5z" fill="#bc1e2a"/><path d="M26.2 57.5V45.9c0-1.6-.7-3.2-1.8-4.4l-5.2-5.2c-1.7-1.7-1-4.6 1.3-5.3l9.3-2.7c1.3-.4 2.5-1.2 3.3-2.4l6.2-8.8c1.2-1.7 3.7-1.8 5.1-.2l7.7 9.5c.8 1 1.8 1.7 3 2l8 2.4c2.1.6 3 3.2 1.6 5L59.2 43c-.9 1.1-1.3 2.5-1.3 3.9l.2 10.6c0 2.3-2.3 3.9-4.4 3L44 56.4c-1.6-.7-3.5-.7-5.1.1l-8.2 3.8c-2.1 1-4.5-.5-4.5-2.8zm55.4-32v-12h5.2c.6 0 1.1.1 1.6.4.5.2.9.6 1.3.9.4.4.6.8.8 1.3.2.5.3 1 .3 1.5s-.1 1-.3 1.5c-.2.5-.5.9-.8 1.3-.3.4-.8.7-1.2.9s-1 .3-1.6.3h-2v3.7h-3.3zm3.3-6.5h1.7c.2 0 .4-.1.6-.3.2-.2.3-.5.3-1s-.1-.8-.3-1-.4-.3-.6-.3h-1.7V19zM96 25.7c-.8 0-1.5-.1-2.1-.4-.6-.3-1.1-.6-1.5-1s-.7-.9-.9-1.5c-.2-.6-.3-1.1-.3-1.7s.1-1.2.3-1.7c.2-.6.5-1 .9-1.5s.9-.8 1.5-1c.6-.3 1.3-.4 2.1-.4s1.5.1 2.1.4 1.1.6 1.5 1 .7.9.9 1.5c.2.6.3 1.1.3 1.7s-.1 1.2-.3 1.7c-.2.6-.5 1-.9 1.5s-.9.8-1.5 1c-.7.3-1.3.4-2.1.4zm-1.6-4.6c0 .6.1 1.1.4 1.4.3.3.7.5 1.1.5s.8-.2 1.1-.5.4-.8.4-1.4-.1-1.1-.4-1.4-.7-.5-1.1-.5-.8.2-1.1.5c-.3.3-.4.8-.4 1.4zm7.4-7.9h3.2v8.6c0 .7.3 1 .8 1 .1 0 .3 0 .4-.1.2 0 .3-.1.4-.2l.4 2.6c-.4.2-.8.3-1.3.4-.5.1-.9.2-1.4.2-.9 0-1.5-.2-2-.7-.5-.4-.7-1.1-.7-1.9v-9.9zm6.1 12.3v-8.9h3.2v8.9h-3.2zm2.6-9.4l-2-.5.8-2.4h2.9l-1.7 2.9zm8.4 8.9c-.5.2-.9.4-1.4.5s-1 .2-1.5.2c-.4 0-.7 0-1-.1-.3-.1-.6-.2-.9-.4s-.4-.5-.6-.8c-.1-.3-.2-.7-.2-1.2v-4.1h-1.1v-2.4h1.1v-2.8h3.2v2.8h1.7v2.4h-1.7V22c0 .3.1.5.2.6.1.1.3.2.5.2s.3 0 .5-.1.4-.1.6-.2l.6 2.5zm.9-9.1v-2.7h3.2v2.7h-3.2zm0 9.6v-8.9h3.2v8.9h-3.2zm4.2-4.4c0-.6.1-1.2.3-1.7s.5-1 .9-1.5.9-.8 1.5-1 1.3-.4 2.1-.4c1.1 0 2 .2 2.7.7.7.5 1.3 1 1.6 1.7l-3.1.9c-.3-.4-.7-.7-1.2-.7-.4 0-.8.2-1.1.5-.3.3-.5.8-.5 1.4s.2 1.1.5 1.4c.3.3.7.5 1.1.5.5 0 .9-.2 1.2-.7l3.1.9c-.4.7-.9 1.3-1.6 1.7s-1.6.7-2.7.7c-.8 0-1.5-.1-2.1-.4-.6-.3-1.1-.6-1.5-1s-.7-.9-.9-1.5c-.2-.3-.3-.9-.3-1.5zm12.8 4.6c-.4 0-.9-.1-1.2-.2-.4-.1-.7-.3-1-.6s-.5-.6-.7-.9c-.2-.3-.2-.7-.2-1.1 0-.5.1-.9.3-1.2.2-.4.5-.7.8-1 .3-.3.7-.5 1.2-.6s1-.2 1.5-.2c.7 0 1.3.1 1.8.3v-.3c0-.4-.1-.7-.4-.9s-.6-.3-1.2-.3c-.5 0-1 .1-1.4.2-.4.2-.9.4-1.4.7l-.9-2c1.2-.8 2.5-1.1 4-1.1 1.4 0 2.5.3 3.3.9.8.6 1.1 1.6 1.1 2.8V22c0 .3.1.5.2.6.1.1.3.2.6.2v2.7c-.3.1-.6.1-.8.1h-.7c-.6 0-1-.1-1.3-.3-.3-.2-.5-.5-.6-.9l-.1-.3c-.4.5-.9.9-1.4 1.2-.4.3-.9.4-1.5.4zm.9-2.3c.2 0 .4 0 .6-.1.2-.1.4-.1.5-.2l.3-.3c.1-.1.1-.2.1-.3v-.7c-.2-.1-.4-.1-.6-.2s-.4-.1-.6-.1c-.4 0-.7.1-1 .3-.3.2-.4.4-.4.7 0 .2.1.5.3.6.3.2.5.3.8.3zm20.7-.9c0 .5-.1 1-.3 1.4s-.5.7-.9 1c-.4.2-.9.4-1.4.5-.5.1-1.1.2-1.7.2h-5.9v-12h7c.4 0 .8.1 1.1.3s.6.4.9.7c.2.3.4.6.5 1 .1.4.2.7.2 1.1 0 .6-.1 1.1-.4 1.6-.3.5-.7.9-1.3 1.2.7.2 1.2.6 1.6 1.1.4.3.6 1 .6 1.9zm-6.9-6.2v1.8h2.2c.2 0 .4-.1.6-.2.2-.1.3-.4.3-.7 0-.3-.1-.6-.2-.7-.2-.1-.3-.2-.6-.2h-2.3zm3.6 5.5c0-.3-.1-.5-.2-.7-.2-.2-.4-.3-.6-.3h-2.7v2h2.6c.3 0 .5-.1.7-.3.1-.2.2-.4.2-.7zm8.7 3.9c-.8 0-1.5-.1-2.1-.4-.6-.3-1.1-.6-1.5-1s-.7-.9-.9-1.5c-.2-.6-.3-1.1-.3-1.7s.1-1.2.3-1.7c.2-.6.5-1 .9-1.5s.9-.8 1.5-1c.6-.3 1.3-.4 2.1-.4s1.5.1 2.1.4 1.1.6 1.5 1 .7.9.9 1.5c.2.6.3 1.1.3 1.7s-.1 1.2-.3 1.7c-.2.6-.5 1-.9 1.5s-.9.8-1.5 1c-.6.3-1.3.4-2.1.4zm-1.5-4.6c0 .6.1 1.1.4 1.4.3.3.7.5 1.1.5s.8-.2 1.1-.5.4-.8.4-1.4-.1-1.1-.4-1.4-.7-.5-1.1-.5-.8.2-1.1.5c-.3.3-.4.8-.4 1.4zm7.4-7.9h3.2v8.6c0 .7.3 1 .8 1 .1 0 .3 0 .4-.1.2 0 .3-.1.4-.2l.4 2.6c-.4.2-.8.3-1.3.4-.5.1-.9.2-1.4.2-.9 0-1.5-.2-2-.7-.5-.4-.7-1.1-.7-1.9v-9.9zm10.1 12.5c-.4 0-.8 0-1.2-.1-.4-.1-.8-.1-1.3-.2l-1.2-.3c-.4-.1-.7-.3-1-.4l1.2-2.2c.6.3 1.2.6 1.8.7.6.2 1.1.3 1.6.3.6 0 .8-.1.8-.4 0-.1-.1-.3-.3-.4-.2-.1-.7-.2-1.3-.4-.6-.2-1.2-.3-1.6-.5-.4-.2-.8-.4-1-.6-.3-.2-.4-.4-.6-.7s-.2-.5-.2-.9c0-.5.1-.9.3-1.3.2-.4.4-.7.8-1s.7-.5 1.2-.7c.5-.2 1-.2 1.5-.2.6 0 1.2.1 1.9.3s1.4.4 2.1.7l-1.2 2c-.6-.3-1.2-.5-1.6-.6-.4-.1-.8-.2-1.2-.2-.2 0-.4 0-.6.1-.2.1-.2.2-.2.3 0 .1 0 .2.1.2 0 .1.1.1.2.2s.3.1.5.2.4.1.7.2c.7.2 1.2.3 1.7.5s.8.4 1.1.6c.3.2.5.5.6.7.1.3.2.6.2 1 0 .9-.3 1.6-1 2.2-.7.6-1.7.9-2.8.9zm7.4 0c-.4 0-.9-.1-1.2-.2-.4-.1-.7-.3-1-.6s-.5-.6-.7-.9c-.2-.3-.2-.7-.2-1.1 0-.5.1-.9.3-1.2.2-.4.5-.7.8-1 .3-.3.7-.5 1.2-.6s1-.2 1.5-.2c.7 0 1.3.1 1.8.3v-.3c0-.4-.1-.7-.4-.9s-.6-.3-1.2-.3c-.5 0-1 .1-1.4.2-.4.2-.9.4-1.4.7l-.9-2c1.2-.8 2.5-1.1 4-1.1 1.4 0 2.5.3 3.3.9.8.6 1.1 1.6 1.1 2.8V22c0 .3.1.5.2.6.1.1.3.2.6.2v2.7c-.3.1-.6.1-.8.1h-.7c-.6 0-1-.1-1.3-.3-.3-.2-.5-.5-.6-.9l-.1-.3c-.4.5-.9.9-1.4 1.2-.3.3-.9.4-1.5.4zm1-2.3c.2 0 .4 0 .6-.1.2-.1.4-.1.5-.2l.3-.3c.1-.1.1-.2.1-.3v-.7c-.2-.1-.4-.1-.6-.2s-.4-.1-.6-.1c-.4 0-.7.1-1 .3-.3.2-.4.4-.4.7 0 .2.1.5.3.6.2.2.5.3.8.3zm17.9 1.2c-.8.7-1.6 1.1-2.6 1.1-.7 0-1.4-.2-2.1-.5-.7-.3-1.2-.8-1.7-1.3-.5-.6-.9-1.2-1.2-2s-.4-1.5-.4-2.4c0-.8.1-1.6.4-2.4.3-.7.7-1.4 1.2-1.9s1.1-1 1.8-1.3c.7-.3 1.5-.5 2.3-.5.5 0 1 .1 1.5.2s.9.3 1.3.5.7.5 1.1.8c.3.3.6.7.8 1.1l-2.5 1.9c-.2-.5-.5-.9-.9-1.1-.4-.3-.8-.4-1.3-.4-.3 0-.7.1-.9.2-.3.2-.5.4-.7.7-.2.3-.4.6-.5 1-.1.4-.2.8-.2 1.3s.1.9.2 1.3.3.7.5 1c.2.3.5.5.8.6.3.2.6.2 1 .2s.8-.1 1.2-.3c.4-.2.7-.5 1.1-.9h-2.1v-2.4h4.9v6.4h-2.7v-.9zm6.7 1.1c-.4 0-.9-.1-1.2-.2-.4-.1-.7-.3-1-.6s-.5-.6-.7-.9c-.2-.3-.2-.7-.2-1.1 0-.5.1-.9.3-1.2.2-.4.5-.7.8-1 .3-.3.7-.5 1.2-.6s1-.2 1.5-.2c.7 0 1.3.1 1.8.3v-.3c0-.4-.1-.7-.4-.9s-.6-.3-1.2-.3c-.5 0-1 .1-1.4.2-.4.2-.9.4-1.4.7l-.9-2c1.2-.8 2.5-1.1 4-1.1 1.4 0 2.5.3 3.3.9.8.6 1.1 1.6 1.1 2.8V22c0 .3.1.5.2.6.1.1.3.2.6.2v2.7c-.3.1-.6.1-.8.1h-.7c-.6 0-1-.1-1.3-.3-.3-.2-.5-.5-.6-.9l-.1-.3c-.4.5-.9.9-1.4 1.2-.4.3-.9.4-1.5.4zm1-2.3c.2 0 .4 0 .6-.1.2-.1.4-.1.5-.2l.3-.3c.1-.1.1-.2.1-.3v-.7c-.2-.1-.4-.1-.6-.2s-.4-.1-.6-.1c-.4 0-.7.1-1 .3-.3.2-.4.4-.4.7 0 .2.1.5.3.6.2.2.5.3.8.3zm12.5-4c-.6 0-1.2.1-1.7.2s-.9.4-1.1.7v5.3h-3.2v-8.9h2.9v1.7c.3-.6.7-1.1 1.2-1.4.5-.3 1-.5 1.5-.5h.4v2.9zm3.5 6.3c-.4 0-.9-.1-1.2-.2-.4-.1-.7-.3-1-.6s-.5-.6-.7-.9c-.2-.3-.2-.7-.2-1.1 0-.5.1-.9.3-1.2.2-.4.5-.7.8-1 .3-.3.7-.5 1.2-.6s1-.2 1.5-.2c.7 0 1.3.1 1.8.3v-.3c0-.4-.1-.7-.4-.9s-.6-.3-1.2-.3c-.5 0-1 .1-1.4.2-.4.2-.9.4-1.4.7l-.9-2c1.2-.8 2.5-1.1 4-1.1 1.4 0 2.5.3 3.3.9.8.6 1.1 1.6 1.1 2.8V22c0 .3.1.5.2.6.1.1.3.2.6.2v2.7c-.3.1-.6.1-.8.1h-.7c-.6 0-1-.1-1.3-.3-.3-.2-.5-.5-.6-.9l-.1-.3c-.4.5-.9.9-1.4 1.2-.4.3-.9.4-1.5.4zm.9-2.3c.2 0 .4 0 .6-.1.2-.1.4-.1.5-.2l.3-.3c.1-.1.1-.2.1-.3v-.7c-.2-.1-.4-.1-.6-.2s-.4-.1-.6-.1c-.4 0-.7.1-1 .3-.3.2-.4.4-.4.7 0 .2.1.5.3.6.3.2.5.3.8.3zm15.5 2.1H243v-5c0-.4-.1-.8-.3-1s-.4-.3-.7-.3c-.3 0-.6.1-.9.4-.3.2-.5.5-.7.9v5h-3.2v-8.9h2.9V18c.3-.5.8-.9 1.3-1.1.6-.3 1.2-.4 2-.4.6 0 1.1.1 1.4.3.4.2.6.5.8.8s.3.7.4 1c.1.4.1.7.1 1v5.9zm7.7-.5c-.5.2-.9.4-1.4.5s-1 .2-1.5.2c-.4 0-.7 0-1-.1-.3-.1-.6-.2-.9-.4s-.4-.5-.6-.8c-.1-.3-.2-.7-.2-1.2v-4.1h-1.1v-2.4h1.1v-2.8h3.2v2.8h1.7v2.4h-1.7V22c0 .3.1.5.2.6.1.1.3.2.5.2s.3 0 .5-.1.4-.1.6-.2l.6 2.5zm.9-9.1v-2.7h3.2v2.7h-3.2zm0 9.6v-8.9h3.2v8.9h-3.2zm8.4.2c-.6 0-1.2-.1-1.7-.3s-1-.5-1.3-1c-.4-.4-.7-.9-.9-1.5s-.3-1.2-.3-1.9.1-1.3.3-1.8c.2-.6.5-1.1.8-1.5s.8-.7 1.2-1c.5-.2 1-.3 1.6-.3.6 0 1.1.1 1.6.4.5.3.8.6 1.1 1.1v-4.8h3.2V22c0 .3.1.5.2.6.1.1.3.2.6.2v2.7c-.3.1-.6.1-.9.1h-.7c-1.1 0-1.7-.4-1.9-1.2l-.1-.3c-.3.5-.7.9-1.2 1.2-.4.3-1 .4-1.6.4zm.9-2.7c.6 0 1.1-.3 1.5-.9v-1.6c-.2-.4-.4-.7-.7-1-.3-.2-.6-.4-1-.4-.2 0-.5.1-.7.2s-.4.2-.5.4-.3.4-.3.6c-.1.2-.1.5-.1.8 0 .6.2 1 .5 1.4.3.3.8.5 1.3.5zm9.3 2.7c-.4 0-.9-.1-1.2-.2-.4-.1-.7-.3-1-.6s-.5-.6-.7-.9c-.2-.3-.2-.7-.2-1.1 0-.5.1-.9.3-1.2.2-.4.5-.7.8-1 .3-.3.7-.5 1.2-.6s1-.2 1.5-.2c.7 0 1.3.1 1.8.3v-.3c0-.4-.1-.7-.4-.9s-.6-.3-1.2-.3c-.5 0-1 .1-1.4.2-.4.2-.9.4-1.4.7l-.9-2c1.2-.8 2.5-1.1 4-1.1 1.4 0 2.5.3 3.3.9.8.6 1.1 1.6 1.1 2.8V22c0 .3.1.5.2.6.1.1.3.2.6.2v2.7c-.3.1-.6.1-.8.1h-.7c-.6 0-1-.1-1.3-.3-.3-.2-.5-.5-.6-.9l-.1-.3c-.4.5-.9.9-1.4 1.2-.4.3-.9.4-1.5.4zm1-2.3c.2 0 .4 0 .6-.1.2-.1.4-.1.5-.2l.3-.3c.1-.1.1-.2.1-.3v-.7c-.2-.1-.4-.1-.6-.2s-.4-.1-.6-.1c-.4 0-.7.1-1 .3-.3.2-.4.4-.4.7 0 .2.1.5.3.6.2.2.5.3.8.3z" fill="#fbbb4a"/><path d="M88.9 36.1c-.1-.2-.3-.3-.5-.4s-.5-.3-.7-.4c-.4-.2-.7-.3-1-.3s-.7-.1-1-.1c-.9 0-1.6.2-2 .5-.4.3-.6.8-.6 1.4 0 .3.1.6.2.8.1.2.3.4.6.5.3.1.6.3 1 .4.4.1.8.2 1.4.3.6.1 1.1.3 1.6.5s.9.4 1.2.6c.3.3.6.6.8.9.2.4.3.8.3 1.3 0 .6-.1 1-.3 1.5-.2.4-.5.8-.9 1-.4.3-.8.5-1.3.6s-1.1.2-1.7.2c-.9 0-1.8-.1-2.6-.4-.8-.3-1.5-.7-2.2-1.2l.7-1.3c.2.2.4.4.7.6.3.2.6.4 1 .5s.7.3 1.2.4c.4.1.8.1 1.3.1.8 0 1.5-.1 1.9-.4s.7-.7.7-1.3c0-.3-.1-.6-.2-.8s-.4-.4-.7-.6c-.3-.2-.6-.3-1.1-.4-.4-.1-.9-.3-1.4-.4-.6-.1-1.1-.3-1.6-.5s-.8-.4-1.1-.6-.5-.5-.7-.8c-.2-.3-.2-.7-.2-1.2 0-.6.1-1.1.3-1.5.2-.4.5-.8.9-1.1.4-.3.8-.5 1.3-.7.5-.1 1.1-.2 1.7-.2.8 0 1.5.1 2.1.4.6.2 1.2.6 1.7 1l-.8 1.1zm5.4 9.4c-.9 0-1.6-.3-2-.9s-.7-1.5-.7-2.7v-5.2H93v4.9c0 1.8.6 2.6 1.8 2.6.6 0 1.1-.2 1.7-.6.5-.4.9-.9 1.2-1.6v-5.4h1.4v6.8c0 .3.2.5.5.5v1.3H99c-.3 0-.6-.1-.8-.2s-.3-.4-.3-.6v-1c-.4.6-.9 1.1-1.5 1.5-.6.4-1.3.6-2.1.6zm9.5 0c-.4 0-.8-.1-1.2-.2-.4-.1-.7-.3-.9-.6s-.5-.5-.6-.8c-.1-.3-.2-.7-.2-1 0-.4.1-.8.3-1.1s.4-.6.7-.9c.3-.2.7-.4 1.2-.5.4-.1.9-.2 1.5-.2.4 0 .8 0 1.3.1.4.1.8.2 1.1.3v-.7c0-.7-.2-1.3-.6-1.7-.4-.4-1-.6-1.7-.6-.9 0-1.8.3-2.7 1l-.5-.9c.6-.4 1.1-.7 1.7-.8.5-.2 1.1-.3 1.7-.3 1.1 0 2 .3 2.6.9.6.6 1 1.5 1 2.6v3.5c0 .3.2.5.5.5v1.3h-.6c-.2 0-.5-.1-.7-.2s-.4-.4-.4-.7v-.6c-.2.3-.4.5-.7.7-.3.2-.5.4-.8.5l-.9.3c-.5 0-.8.1-1.1.1zm.4-1.1c.5 0 .9-.1 1.3-.3.4-.2.8-.4 1-.7.2-.2.3-.5.3-.7v-1.3c-.3-.1-.7-.2-1.1-.3-.4-.1-.7-.1-1.1-.1-.7 0-1.3.2-1.8.5s-.7.7-.7 1.2c0 .2 0 .4.1.6s.2.4.4.5c.2.2.4.3.6.4.4.1.7.2 1 .2zm19.7-2.1c0 .5-.1.9-.3 1.2-.2.4-.4.7-.7 1-.3.3-.7.5-1.1.6s-.9.2-1.3.2H115V33.6h5.8c.4 0 .8.1 1.1.3s.6.4.8.7c.2.3.4.6.5 1s.2.7.2 1.1c0 .6-.1 1.1-.4 1.6-.3.5-.7.9-1.2 1.1.7.2 1.2.6 1.6 1.1s.5 1.1.5 1.8zm-7.5-7.4v3.9h3.7c.3 0 .5-.1.7-.2.2-.1.4-.2.6-.4s.3-.4.4-.6c.1-.2.1-.5.1-.7 0-.3 0-.5-.1-.8s-.2-.4-.4-.6-.3-.3-.5-.4c-.2-.1-.4-.1-.7-.1h-3.8zm6 7.1c0-.3 0-.5-.1-.8-.1-.2-.2-.5-.4-.7s-.3-.3-.6-.4c-.2-.1-.5-.2-.7-.2h-4.2v4h4.1c.3 0 .5-.1.8-.2.2-.1.4-.3.6-.4.2-.2.3-.4.4-.6s.1-.4.1-.7zm7 3.5c-.6 0-1.2-.1-1.8-.4s-1-.6-1.4-1c-.4-.4-.7-.9-.9-1.4-.2-.5-.3-1.1-.3-1.7 0-.6.1-1.2.3-1.7.2-.5.5-1 .9-1.4.4-.4.8-.7 1.4-1s1.1-.4 1.8-.4c.6 0 1.2.1 1.8.4.5.2 1 .6 1.4 1 .4.4.7.9.9 1.4.2.5.3 1.1.3 1.7 0 .6-.1 1.2-.3 1.7-.2.5-.5 1-.9 1.4-.4.4-.8.7-1.4 1s-1.2.4-1.8.4zm-2.9-4.5c0 .5.1.9.2 1.3s.4.7.6 1 .6.5.9.7c.3.2.7.2 1.1.2.4 0 .8-.1 1.1-.2.3-.2.7-.4.9-.7.3-.3.5-.6.6-1 .1-.4.2-.8.2-1.3 0-.4-.1-.9-.2-1.2-.1-.4-.4-.7-.6-1-.3-.3-.6-.5-.9-.7-.3-.2-.7-.2-1.1-.2-.4 0-.8.1-1.1.3s-.6.4-.9.7c-.3.3-.5.6-.6 1-.1.3-.2.7-.2 1.1zm8.9-7.7h1.4v9.8c0 .3.1.6.3.7.2.2.4.3.7.3.1 0 .3 0 .4-.1.2 0 .3-.1.5-.1l.2 1.2c-.2.1-.5.2-.9.2-.3.1-.6.1-.9.1-.6 0-1-.2-1.3-.5-.3-.3-.5-.8-.5-1.3V33.3zm7.5 12.2c-.7 0-1.4-.1-2-.3-.7-.2-1.2-.5-1.7-.9l.6-1c.5.4 1 .7 1.5.9.5.2 1 .3 1.6.3.6 0 1.1-.1 1.5-.4.4-.2.6-.6.6-1 0-.2 0-.4-.1-.5-.1-.1-.2-.3-.4-.4-.2-.1-.5-.2-.8-.3-.3-.1-.7-.2-1.1-.3-.5-.1-1-.3-1.3-.4s-.7-.3-.9-.4c-.2-.2-.4-.4-.5-.6s-.2-.5-.2-.9.1-.8.3-1.1c.2-.3.4-.6.7-.8.3-.2.6-.4 1-.5s.8-.2 1.3-.2c.6 0 1.3.1 1.8.3.6.2 1 .5 1.4.8l-.7.9c-.4-.3-.8-.6-1.2-.7-.5-.2-.9-.2-1.4-.2-.5 0-1 .1-1.3.3-.4.2-.6.6-.6 1.1 0 .2 0 .4.1.5s.2.2.4.3l.6.3c.3.1.6.2.9.2.6.1 1.1.3 1.5.4.4.1.8.3 1.1.5.3.2.5.4.6.7.1.3.2.6.2.9 0 .8-.3 1.4-.9 1.9s-1.5.6-2.6.6zm7.3 0c-.4 0-.8-.1-1.2-.2-.4-.1-.7-.3-.9-.6s-.5-.5-.6-.8c-.1-.3-.2-.7-.2-1 0-.4.1-.8.3-1.1s.4-.6.7-.9c.3-.2.7-.4 1.2-.5.4-.1.9-.2 1.5-.2.4 0 .8 0 1.3.1.4.1.8.2 1.1.3v-.7c0-.7-.2-1.3-.6-1.7-.4-.4-1-.6-1.7-.6-.9 0-1.8.3-2.7 1l-.5-.9c.6-.4 1.1-.7 1.7-.8.5-.2 1.1-.3 1.7-.3 1.1 0 2 .3 2.6.9.6.6 1 1.5 1 2.6v3.5c0 .3.2.5.5.5v1.3h-.6c-.2 0-.5-.1-.7-.2s-.4-.4-.4-.7v-.6c-.2.3-.4.5-.7.7-.3.2-.5.4-.8.5l-.9.3c-.5 0-.8.1-1.1.1zm.4-1.1c.5 0 .9-.1 1.3-.3.4-.2.8-.4 1-.7.2-.2.3-.5.3-.7v-1.3c-.3-.1-.7-.2-1.1-.3-.4-.1-.7-.1-1.1-.1-.7 0-1.3.2-1.8.5s-.7.7-.7 1.2c0 .2 0 .4.1.6s.2.4.4.5c.2.2.4.3.6.4.4.1.7.2 1 .2zm19-.7c-1 1.1-2.2 1.7-3.6 1.7-.8 0-1.5-.2-2.2-.5-.7-.3-1.2-.8-1.7-1.3-.5-.6-.9-1.2-1.1-1.9-.3-.7-.4-1.4-.4-2.2 0-.8.1-1.5.4-2.2.3-.7.7-1.3 1.1-1.9.5-.5 1.1-1 1.7-1.3s1.4-.5 2.2-.5c1.1 0 2.1.2 2.8.7s1.3 1.1 1.7 1.8l-1.1.8c-.4-.7-.8-1.2-1.4-1.5-.6-.3-1.2-.5-2-.5-.6 0-1.1.1-1.6.4-.5.3-.9.6-1.2 1-.3.4-.6.9-.8 1.5s-.3 1.1-.3 1.7c0 .6.1 1.2.3 1.8.2.6.5 1 .9 1.5.4.4.8.8 1.3 1 .5.2 1 .4 1.6.4 1.3 0 2.4-.6 3.4-1.8v-1.6h-2.5v-1.1h3.8v5.8h-1.2v-1.8zm5.5 1.8c-.4 0-.8-.1-1.2-.2-.4-.1-.7-.3-.9-.6s-.5-.5-.6-.8c-.1-.3-.2-.7-.2-1 0-.4.1-.8.3-1.1s.4-.6.7-.9c.3-.2.7-.4 1.2-.5.4-.1.9-.2 1.5-.2.4 0 .8 0 1.3.1.4.1.8.2 1.1.3v-.7c0-.7-.2-1.3-.6-1.7-.4-.4-1-.6-1.7-.6-.9 0-1.8.3-2.7 1l-.5-.9c.6-.4 1.1-.7 1.7-.8.5-.2 1.1-.3 1.7-.3 1.1 0 2 .3 2.6.9.6.6 1 1.5 1 2.6v3.5c0 .3.2.5.5.5v1.3h-.6c-.2 0-.5-.1-.7-.2s-.4-.4-.4-.7v-.6c-.2.3-.4.5-.7.7-.3.2-.5.4-.8.5l-.9.3c-.5 0-.8.1-1.1.1zm.4-1.1c.5 0 .9-.1 1.3-.3.4-.2.8-.4 1-.7.2-.2.3-.5.3-.7v-1.3c-.3-.1-.7-.2-1.1-.3-.4-.1-.7-.1-1.1-.1-.7 0-1.3.2-1.8.5s-.7.7-.7 1.2c0 .2 0 .4.1.6s.2.4.4.5c.2.2.4.3.6.4.4.1.7.2 1 .2zm10.9-6.4c-.7 0-1.4.2-1.9.6-.6.4-.9.8-1.2 1.5v5.3h-1.4v-8.6h1.3v2c.3-.6.7-1.1 1.2-1.5.5-.4 1-.6 1.5-.6h.5V38zm3.5 7.5c-.4 0-.8-.1-1.2-.2-.4-.1-.7-.3-.9-.6s-.5-.5-.6-.8c-.1-.3-.2-.7-.2-1 0-.4.1-.8.3-1.1s.4-.6.7-.9c.3-.2.7-.4 1.2-.5.4-.1.9-.2 1.5-.2.4 0 .8 0 1.3.1.4.1.8.2 1.1.3v-.7c0-.7-.2-1.3-.6-1.7-.4-.4-1-.6-1.7-.6-.9 0-1.8.3-2.7 1l-.5-.9c.6-.4 1.1-.7 1.7-.8.5-.2 1.1-.3 1.7-.3 1.1 0 2 .3 2.6.9.6.6 1 1.5 1 2.6v3.5c0 .3.2.5.5.5v1.3h-.6c-.2 0-.5-.1-.7-.2s-.4-.4-.4-.7v-.6c-.2.3-.4.5-.7.7-.3.2-.5.4-.8.5l-.9.3c-.5 0-.8.1-1.1.1zm.4-1.1c.5 0 .9-.1 1.3-.3.4-.2.8-.4 1-.7.2-.2.3-.5.3-.7v-1.3c-.3-.1-.7-.2-1.1-.3-.4-.1-.7-.1-1.1-.1-.7 0-1.3.2-1.8.5s-.7.7-.7 1.2c0 .2 0 .4.1.6s.2.4.4.5c.2.2.4.3.6.4.4.1.7.2 1 .2zm13.8.9h-1.4v-4.8c0-.9-.1-1.6-.4-2-.3-.4-.7-.6-1.3-.6-.3 0-.6.1-.9.2s-.6.3-.8.5c-.3.2-.5.4-.7.7-.2.3-.3.6-.4.9v5.2h-1.4v-8.6h1.3v1.8c.3-.6.8-1.1 1.5-1.4s1.3-.5 2.1-.5c.5 0 .9.1 1.2.3.3.2.6.4.8.8.2.3.3.7.4 1.1.1.4.1.9.1 1.4v5zm6.5-.4c-.1 0-.2.1-.3.2-.1.1-.3.1-.5.2s-.4.1-.6.1c-.2 0-.4.1-.7.1-.5 0-1-.1-1.4-.4-.4-.3-.6-.7-.6-1.4v-5.8h-1.2v-1.1h1.2v-2.9h1.4v2.9h1.9v1.1h-1.9v5.3c0 .3.1.5.3.7s.4.2.7.2c.3 0 .5 0 .8-.1.2-.1.4-.2.5-.2l.4 1.1zm1.2-9.8v-1.8h1.4v1.8h-1.4zm0 10.2v-8.6h1.4v8.6h-1.4zm7.2.2c-.6 0-1.1-.1-1.6-.4-.5-.2-.9-.6-1.3-1s-.6-.9-.8-1.4c-.2-.5-.3-1.1-.3-1.7 0-.6.1-1.2.3-1.7.2-.5.5-1 .8-1.4s.8-.7 1.2-1c.5-.2 1-.4 1.6-.4.7 0 1.3.2 1.9.5s1 .8 1.3 1.3v-5.1h1.4v10.2c0 .3.2.5.5.5v1.3h-.6c-.3 0-.6-.1-.8-.3-.2-.2-.3-.4-.3-.6v-.8c-.3.6-.8 1-1.4 1.3s-1.3.7-1.9.7zm.3-1.3c.3 0 .5 0 .8-.1.3-.1.5-.2.8-.4.2-.2.5-.4.6-.6.2-.2.3-.5.4-.7v-2.5c-.1-.3-.2-.5-.4-.8s-.4-.5-.7-.6c-.2-.2-.5-.3-.8-.4-.3-.1-.6-.2-.8-.2-.4 0-.8.1-1.2.3-.3.2-.6.4-.9.7s-.4.6-.6 1c-.1.4-.2.8-.2 1.2 0 .4.1.8.2 1.2s.4.7.6 1c.3.3.6.5.9.7.5.1.9.2 1.3.2zm8.8 1.3c-.4 0-.8-.1-1.2-.2-.4-.1-.7-.3-.9-.6s-.5-.5-.6-.8c-.1-.3-.2-.7-.2-1 0-.4.1-.8.3-1.1s.4-.6.7-.9c.3-.2.7-.4 1.2-.5.4-.1.9-.2 1.5-.2.4 0 .8 0 1.3.1.4.1.8.2 1.1.3v-.7c0-.7-.2-1.3-.6-1.7-.4-.4-1-.6-1.7-.6-.9 0-1.8.3-2.7 1l-.5-.9c.6-.4 1.1-.7 1.7-.8.5-.2 1.1-.3 1.7-.3 1.1 0 2 .3 2.6.9.6.6 1 1.5 1 2.6v3.5c0 .3.2.5.5.5v1.3h-.6c-.2 0-.5-.1-.7-.2s-.4-.4-.4-.7v-.6c-.2.3-.4.5-.7.7-.3.2-.5.4-.8.5l-.9.3c-.5 0-.8.1-1.1.1zm.3-1.1c.5 0 .9-.1 1.3-.3.4-.2.8-.4 1-.7.2-.2.3-.5.3-.7v-1.3c-.3-.1-.7-.2-1.1-.3-.4-.1-.7-.1-1.1-.1-.7 0-1.3.2-1.8.5s-.7.7-.7 1.2c0 .2 0 .4.1.6s.2.4.4.5c.2.2.4.3.6.4.4.1.7.2 1 .2zm14.3 1.1c-.6 0-1.2-.1-1.8-.4s-1-.6-1.4-1c-.4-.4-.7-.9-.9-1.4-.2-.5-.3-1.1-.3-1.7 0-.6.1-1.2.3-1.7.2-.5.5-1 .9-1.4.4-.4.8-.7 1.4-1s1.1-.4 1.8-.4c.6 0 1.2.1 1.8.4.5.2 1 .6 1.4 1 .4.4.7.9.9 1.4.2.5.3 1.1.3 1.7 0 .6-.1 1.2-.3 1.7-.2.5-.5 1-.9 1.4-.4.4-.8.7-1.4 1s-1.2.4-1.8.4zm-2.9-4.5c0 .5.1.9.2 1.3s.4.7.6 1 .6.5.9.7c.3.2.7.2 1.1.2.4 0 .8-.1 1.1-.2.3-.2.7-.4.9-.7.3-.3.5-.6.6-1 .1-.4.2-.8.2-1.3 0-.4-.1-.9-.2-1.2-.1-.4-.4-.7-.6-1-.3-.3-.6-.5-.9-.7-.3-.2-.7-.2-1.1-.2-.4 0-.8.1-1.1.3s-.6.4-.9.7c-.3.3-.5.6-.6 1-.1.3-.2.7-.2 1.1zm11.5 4.5c-.9 0-1.6-.3-2-.9s-.7-1.5-.7-2.7v-5.2h1.4v4.9c0 1.8.6 2.6 1.8 2.6.6 0 1.1-.2 1.7-.6.5-.4.9-.9 1.2-1.6v-5.4h1.4v6.8c0 .3.2.5.5.5v1.3h-.6c-.3 0-.6-.1-.8-.2s-.3-.4-.3-.6v-1c-.4.6-.9 1.1-1.5 1.5-.7.4-1.4.6-2.1.6zM84.8 64.1c-.7 0-1.4-.1-2-.3-.7-.2-1.2-.5-1.7-.9l.6-1c.5.4 1 .7 1.5.9.5.2 1 .3 1.6.3.6 0 1.1-.1 1.5-.4.4-.2.6-.6.6-1 0-.2 0-.4-.1-.5-.1-.1-.2-.3-.4-.4-.2-.1-.5-.2-.8-.3-.3-.1-.7-.2-1.1-.3-.5-.1-1-.3-1.3-.4s-.7-.3-.9-.4c-.2-.2-.4-.4-.5-.6s-.2-.5-.2-.9.1-.8.3-1.1c.2-.3.4-.6.7-.8.3-.2.6-.4 1-.5s.8-.2 1.3-.2c.6 0 1.3.1 1.8.3.6.2 1 .5 1.4.8l-.7.9c-.4-.3-.8-.6-1.2-.7-.5-.2-.9-.2-1.4-.2-.5 0-1 .1-1.3.3-.4.2-.6.6-.6 1.1 0 .2 0 .4.1.5s.2.2.4.3l.6.3c.3.1.6.2.9.2.6.1 1.1.3 1.5.4.4.1.8.3 1.1.5.3.2.5.4.6.7.1.3.2.6.2.9 0 .8-.3 1.4-.9 1.9s-1.6.6-2.6.6zm8.8 0c-.6 0-1.2-.1-1.8-.4-.5-.2-1-.6-1.4-1-.4-.4-.7-.9-.9-1.4s-.3-1.1-.3-1.7.1-1.2.3-1.7c.2-.5.5-1 .9-1.4s.9-.7 1.4-1c.5-.2 1.1-.4 1.8-.4s1.2.1 1.8.4c.5.2 1 .6 1.4 1 .4.4.7.9.9 1.4s.3 1.1.3 1.7v.5h-7.1c0 .4.1.8.3 1.2.2.4.4.7.6.9.3.3.6.4.9.6.3.1.7.2 1.1.2.3 0 .5 0 .8-.1.3-.1.5-.2.7-.3s.4-.3.6-.4c.2-.2.3-.4.4-.6l1.2.3c-.1.3-.3.6-.6.9-.2.3-.5.5-.9.7-.3.2-.7.3-1.1.5-.5 0-.9.1-1.3.1zm2.9-5.1c0-.4-.1-.8-.3-1.1l-.6-.9-.9-.6c-.3-.1-.7-.2-1.1-.2s-.7.1-1.1.2c-.3.1-.6.3-.9.6-.3.2-.5.5-.6.9s-.3.7-.3 1.1h5.8zm5.5 5.1c-.9 0-1.6-.3-2-.9s-.7-1.5-.7-2.7v-5.2h1.4v4.9c0 1.8.6 2.6 1.8 2.6.6 0 1.1-.2 1.7-.6.5-.4.9-.9 1.2-1.6v-5.4h1.4V62c0 .3.2.5.5.5v1.3h-.6c-.3 0-.6-.1-.8-.2s-.3-.4-.3-.6v-1c-.4.6-.9 1.1-1.5 1.5-.6.4-1.3.6-2.1.6zm14.8 0c-.6 0-1.1-.1-1.6-.4-.5-.2-.9-.6-1.3-1s-.6-.9-.8-1.4c-.2-.5-.3-1.1-.3-1.7 0-.6.1-1.2.3-1.7.2-.5.5-1 .8-1.4s.8-.7 1.2-1c.5-.2 1-.4 1.6-.4.7 0 1.3.2 1.9.5s1 .8 1.3 1.3v-5.1h1.4V62c0 .3.2.5.5.5v1.3h-.6c-.3 0-.6-.1-.8-.3-.2-.2-.3-.4-.3-.6v-.8c-.3.6-.8 1-1.4 1.3s-1.2.7-1.9.7zm.4-1.3c.3 0 .5 0 .8-.1.3-.1.5-.2.8-.4.2-.2.5-.4.6-.6.2-.2.3-.5.4-.7v-2.5c-.1-.3-.2-.5-.4-.8s-.4-.5-.7-.6c-.2-.2-.5-.3-.8-.4-.3-.1-.6-.2-.8-.2-.4 0-.8.1-1.2.3-.3.2-.6.4-.9.7s-.4.6-.6 1c-.1.4-.2.8-.2 1.2 0 .4.1.8.2 1.2s.4.7.6 1c.3.3.6.5.9.7.5.1.9.2 1.3.2zm6.4-9.1v-1.8h1.4v1.8h-1.4zm0 10.2v-8.6h1.4v8.6h-1.4zm11.1 0h-1.4v-4.8c0-.9-.1-1.6-.4-2-.3-.4-.7-.6-1.3-.6-.3 0-.6.1-.9.2s-.6.3-.8.5c-.3.2-.5.4-.7.7-.2.3-.3.6-.4.9V64h-1.4v-8.6h1.3v1.8c.3-.6.8-1.1 1.5-1.4s1.3-.5 2.1-.5c.5 0 .9.1 1.2.3.3.2.6.4.8.8.2.3.3.7.4 1.1.1.4.1.9.1 1.4v5zm9.5 0h-1.4v-4.8c0-.9-.2-1.5-.5-2-.3-.4-.8-.7-1.3-.7-.3 0-.6.1-.9.2-.3.1-.6.3-.8.5-.2.2-.5.4-.7.7-.2.3-.3.6-.4.9v5.2h-1.4v-12h1.4v5.3c.3-.6.8-1.1 1.4-1.5.6-.4 1.2-.5 1.9-.5.5 0 .9.1 1.3.3.4.2.6.4.8.8.2.3.4.7.5 1.1.1.4.1.9.1 1.4v5.1zm6 .2c-.6 0-1.2-.1-1.8-.4-.5-.2-1-.6-1.4-1-.4-.4-.7-.9-.9-1.4s-.3-1.1-.3-1.7.1-1.2.3-1.7c.2-.5.5-1 .9-1.4s.9-.7 1.4-1c.5-.2 1.1-.4 1.8-.4s1.2.1 1.8.4c.5.2 1 .6 1.4 1 .4.4.7.9.9 1.4s.3 1.1.3 1.7v.5h-7.1c0 .4.1.8.3 1.2.2.4.4.7.6.9.3.3.6.4.9.6.3.1.7.2 1.1.2.3 0 .5 0 .8-.1.3-.1.5-.2.7-.3s.4-.3.6-.4c.2-.2.3-.4.4-.6l1.2.3c-.1.3-.3.6-.6.9-.2.3-.5.5-.9.7-.3.2-.7.3-1.1.5-.5 0-.9.1-1.3.1zm2.9-5.1c0-.4-.1-.8-.3-1.1l-.6-.9-.9-.6c-.3-.1-.7-.2-1.1-.2s-.7.1-1.1.2c-.3.1-.6.3-.9.6-.3.2-.5.5-.6.9s-.3.7-.3 1.1h5.8zm2.9-5.3v-1.8h1.4v1.8H156zm0 10.2v-8.6h1.4v8.6H156zm8.2-7.3c-.7 0-1.4.2-1.9.6-.6.4-.9.8-1.2 1.5V64h-1.4v-8.6h1.3v2c.3-.6.7-1.1 1.2-1.5.5-.4 1-.6 1.5-.6h.5v1.3zm4.7 7.5c-.6 0-1.2-.1-1.8-.4s-1-.6-1.4-1c-.4-.4-.7-.9-.9-1.4-.2-.5-.3-1.1-.3-1.7 0-.6.1-1.2.3-1.7.2-.5.5-1 .9-1.4.4-.4.8-.7 1.4-1s1.1-.4 1.8-.4c.6 0 1.2.1 1.8.4.5.2 1 .6 1.4 1 .4.4.7.9.9 1.4.2.5.3 1.1.3 1.7 0 .6-.1 1.2-.3 1.7-.2.5-.5 1-.9 1.4-.4.4-.8.7-1.4 1s-1.1.4-1.8.4zm-2.8-4.4c0 .5.1.9.2 1.3s.4.7.6 1 .6.5.9.7c.3.2.7.2 1.1.2.4 0 .8-.1 1.1-.2.3-.2.7-.4.9-.7.3-.3.5-.6.6-1 .1-.4.2-.8.2-1.3 0-.4-.1-.9-.2-1.2-.1-.4-.4-.7-.6-1-.3-.3-.6-.5-.9-.7-.3-.2-.7-.2-1.1-.2-.4 0-.8.1-1.1.3s-.6.4-.9.7c-.3.3-.5.6-.6 1-.1.2-.2.6-.2 1.1zm16.4 4.4c-.6 0-1.1-.1-1.6-.4-.5-.2-.9-.6-1.3-1s-.6-.9-.8-1.4c-.2-.5-.3-1.1-.3-1.7 0-.6.1-1.2.3-1.7.2-.5.5-1 .8-1.4s.8-.7 1.2-1c.5-.2 1-.4 1.6-.4.7 0 1.3.2 1.9.5s1 .8 1.3 1.3v-5.1h1.4V62c0 .3.2.5.5.5v1.3h-.6c-.3 0-.6-.1-.8-.3-.2-.2-.3-.4-.3-.6v-.8c-.3.6-.8 1-1.4 1.3s-1.3.7-1.9.7zm.4-1.3c.3 0 .5 0 .8-.1.3-.1.5-.2.8-.4.2-.2.5-.4.6-.6.2-.2.3-.5.4-.7v-2.5c-.1-.3-.2-.5-.4-.8s-.4-.5-.7-.6c-.2-.2-.5-.3-.8-.4-.3-.1-.6-.2-.8-.2-.4 0-.8.1-1.2.3-.3.2-.6.4-.9.7s-.4.6-.6 1c-.1.4-.2.8-.2 1.2 0 .4.1.8.2 1.2s.4.7.6 1c.3.3.6.5.9.7.5.1.8.2 1.3.2zm10.2 1.3c-.6 0-1.2-.1-1.8-.4-.5-.2-1-.6-1.4-1-.4-.4-.7-.9-.9-1.4s-.3-1.1-.3-1.7.1-1.2.3-1.7c.2-.5.5-1 .9-1.4s.9-.7 1.4-1c.5-.2 1.1-.4 1.8-.4s1.2.1 1.8.4c.5.2 1 .6 1.4 1 .4.4.7.9.9 1.4s.3 1.1.3 1.7v.5h-7.1c0 .4.1.8.3 1.2.2.4.4.7.6.9.3.3.6.4.9.6.3.1.7.2 1.1.2.3 0 .5 0 .8-.1.3-.1.5-.2.7-.3s.4-.3.6-.4c.2-.2.3-.4.4-.6l1.2.3c-.1.3-.3.6-.6.9-.2.3-.5.5-.9.7-.3.2-.7.3-1.1.5-.5 0-.9.1-1.3.1zM196 59c0-.4-.1-.8-.3-1.1l-.6-.9-.9-.6c-.3-.1-.7-.2-1.1-.2s-.7.1-1.1.2c-.3.1-.6.3-.9.6-.3.2-.5.5-.6.9s-.3.7-.3 1.1h5.8zm9 4.9l-3.4-8.6h1.5l2.7 7.3 2.7-7.3h1.4l-3.4 8.6H205zm9.7.2c-.6 0-1.2-.1-1.8-.4s-1-.6-1.4-1c-.4-.4-.7-.9-.9-1.4-.2-.5-.3-1.1-.3-1.7 0-.6.1-1.2.3-1.7.2-.5.5-1 .9-1.4.4-.4.8-.7 1.4-1s1.1-.4 1.8-.4c.6 0 1.2.1 1.8.4.5.2 1 .6 1.4 1 .4.4.7.9.9 1.4.2.5.3 1.1.3 1.7 0 .6-.1 1.2-.3 1.7-.2.5-.5 1-.9 1.4-.4.4-.8.7-1.4 1s-1.1.4-1.8.4zm-2.8-4.4c0 .5.1.9.2 1.3s.4.7.6 1 .6.5.9.7c.3.2.7.2 1.1.2.4 0 .8-.1 1.1-.2.3-.2.7-.4.9-.7.3-.3.5-.6.6-1 .1-.4.2-.8.2-1.3 0-.4-.1-.9-.2-1.2-.1-.4-.4-.7-.6-1-.3-.3-.6-.5-.9-.7-.3-.2-.7-.2-1.1-.2-.4 0-.8.1-1.1.3s-.6.4-.9.7c-.3.3-.5.6-.6 1-.1.2-.2.6-.2 1.1zm8.8-7.8h1.4v9.8c0 .3.1.6.3.7.2.2.4.3.7.3.1 0 .3 0 .4-.1.2 0 .3-.1.5-.1l.2 1.2c-.2.1-.5.2-.9.2-.3.1-.6.1-.9.1-.6 0-1-.2-1.3-.5-.3-.3-.5-.8-.5-1.3V51.9zm8.9 11.6c-.1 0-.2.1-.3.2-.1.1-.3.1-.5.2s-.4.1-.6.1c-.2 0-.4.1-.7.1-.5 0-1-.1-1.4-.4-.4-.3-.6-.7-.6-1.4v-5.8h-1.2v-1.1h1.2v-2.9h1.4v2.9h1.9v1.1H227v5.3c0 .3.1.5.3.7s.4.2.7.2c.3 0 .5 0 .8-.1.2-.1.4-.2.5-.2l.3 1.1zm3.4.6c-.4 0-.8-.1-1.2-.2-.4-.1-.7-.3-.9-.6s-.5-.5-.6-.8c-.1-.3-.2-.7-.2-1 0-.4.1-.8.3-1.1s.4-.6.7-.9c.3-.2.7-.4 1.2-.5.4-.1.9-.2 1.5-.2.4 0 .8 0 1.3.1.4.1.8.2 1.1.3v-.7c0-.7-.2-1.3-.6-1.7-.4-.4-1-.6-1.7-.6-.9 0-1.8.3-2.7 1l-.5-.9c.6-.4 1.1-.7 1.7-.8.5-.2 1.1-.3 1.7-.3 1.1 0 2 .3 2.6.9.6.6 1 1.5 1 2.6v3.5c0 .3.2.5.5.5V64h-.6c-.2 0-.5-.1-.7-.2s-.4-.4-.4-.7v-.6c-.2.3-.4.5-.7.7-.3.2-.5.4-.8.5l-.9.3c-.5.1-.8.1-1.1.1zm.4-1.1c.5 0 .9-.1 1.3-.3.4-.2.8-.4 1-.7.2-.2.3-.5.3-.7V60c-.3-.1-.7-.2-1.1-.3-.4-.1-.7-.1-1.1-.1-.7 0-1.3.2-1.8.5s-.7.7-.7 1.2c0 .2 0 .4.1.6s.2.4.4.5c.2.2.4.3.6.4.4.2.7.2 1 .2z" fill="#fff"/></svg>